<svg width="843" height="817" viewBox="0 0 843 817" fill="none" xmlns="http://www.w3.org/2000/svg">
<path d="M0 292.481H164.65L164.65 648.21L0 816.997V292.481Z" fill="#66B3FF"/>
<path d="M289.608 292.481H436.862C501.138 292.481 553.244 344.654 553.244 409.013C553.244 473.372 501.138 525.545 436.862 525.545H289.608V292.481Z" fill="#66B3FF"/>
<path d="M0 0.0475224V168.835L436.127 168.835C436.127 168.835 470.428 167.89 510.367 181.101C543.8 192.161 581.478 215.032 603.472 238.508C651.74 290.028 675.302 345.24 673.302 415.146C671.302 485.052 648.31 530.451 602.247 579.272C581.407 601.36 545.464 624.075 512.082 635.207C471.682 648.68 435.147 648.21 435.147 648.21H164.65L0 816.997L435.637 816.997C435.637 816.997 509.192 817.893 580.196 790.256C618.328 775.414 656.681 752.975 688.983 727.206C716.63 705.151 739.583 680.478 757.097 658.023C796.364 607.678 817.454 558.274 829.866 509.107C842.279 459.941 847.004 411.397 839.177 353.323C823.002 233.303 758.593 142.163 677.712 79.7797C643.544 53.4259 590.151 27.6251 546.384 15.2581C486.547 -1.64964 439.802 0.0474336 439.802 0.0474336L0 0.0475224Z" fill="#66B3FF"/>
</svg>
